<?xml version="1.0" standalone="no"?>
<!DOCTYPE svg PUBLIC "-//W3C//DTD SVG 20010904//EN"
 "http://www.w3.org/TR/2001/REC-SVG-20010904/DTD/svg10.dtd">
<svg version="1.0" xmlns="http://www.w3.org/2000/svg"
 width="640.000000pt" height="640.000000pt" viewBox="0 0 640.000000 640.000000"
 preserveAspectRatio="xMidYMid meet">

<g transform="translate(0.000000,640.000000) scale(0.100000,-0.100000)"
fill="#000000" stroke="none">
<path d="M1855 5790 c-4 -6 -4 -40 0 -75 l6 -63 -35 -22 c-59 -36 -73 -83 -36
-120 11 -11 22 -31 26 -44 3 -13 14 -32 24 -41 15 -13 16 -21 7 -44 -8 -23 -5
-41 18 -102 16 -41 34 -83 41 -94 7 -11 20 -49 29 -84 9 -36 29 -90 44 -120
16 -31 31 -68 35 -84 3 -15 21 -44 39 -65 18 -20 53 -71 76 -112 92 -158 117
-198 187 -300 l72 -105 -42 -45 -43 -46 -5 -189 c-6 -175 -9 -201 -42 -330
-19 -77 -44 -158 -55 -180 -11 -22 -25 -78 -30 -125 -14 -125 -135 -472 -220
-630 -50 -92 -51 -112 -8 -142 17 -12 42 -32 55 -43 13 -11 46 -31 75 -45 64
-31 67 -43 65 -245 -1 -138 2 -162 32 -290 33 -138 34 -144 38 -423 2 -156 1
-293 -2 -305 -7 -30 -101 -127 -154 -160 -54 -35 -57 -68 -9 -97 42 -26 111
-26 161 1 36 19 39 19 50 3 11 -14 24 -16 74 -12 33 3 65 9 71 13 17 10 14
179 -4 222 -19 46 -19 192 0 378 18 172 18 268 3 406 -10 91 -9 131 5 266 22
195 24 203 51 203 11 0 46 7 76 15 69 19 66 22 121 -144 23 -69 59 -159 80
-201 22 -41 44 -102 50 -135 6 -33 17 -88 25 -123 25 -105 62 -540 50 -587 -4
-15 -27 -49 -52 -75 -36 -38 -45 -55 -42 -77 3 -27 6 -28 61 -31 32 -2 64 2
72 8 9 7 16 6 25 -5 7 -9 29 -15 51 -15 33 0 41 4 49 26 15 37 12 90 -7 158
-15 53 -16 88 -6 335 12 347 7 448 -28 516 -15 28 -38 85 -53 128 -23 67 -26
90 -24 179 l3 102 38 8 c86 18 157 75 157 126 0 14 -17 57 -39 96 -45 84 -117
270 -130 341 -16 79 -69 224 -100 269 -40 57 -51 105 -51 219 0 102 12 126 26
55 8 -40 9 -38 14 42 5 77 6 82 17 57 18 -39 33 -33 33 13 0 38 12 52 25 30 4
-6 1 -58 -6 -115 -9 -77 -10 -110 -1 -127 9 -19 11 -11 12 52 2 64 16 150 19
113 1 -7 8 -63 16 -126 16 -125 31 -158 126 -282 25 -33 60 -82 79 -110 18
-27 52 -71 75 -96 24 -25 46 -60 49 -76 5 -22 17 -36 41 -47 18 -9 37 -16 42
-16 5 0 17 -13 26 -30 22 -37 36 -37 88 -4 23 14 42 24 43 22 8 -10 29 -274
36 -458 5 -118 16 -276 24 -350 21 -203 9 -684 -20 -724 -10 -15 -11 -23 -2
-33 6 -7 9 -15 7 -16 -2 -1 -32 -16 -66 -31 -71 -33 -88 -66 -59 -111 20 -31
53 -39 119 -31 29 4 114 8 189 10 150 3 165 8 170 58 2 25 8 31 30 34 15 1 30
-2 33 -7 7 -10 116 -12 163 -3 39 8 57 48 57 127 0 44 4 58 16 62 9 3 24 14
33 23 14 17 14 25 1 93 -9 50 -12 105 -8 165 5 73 1 110 -20 209 -49 230 -55
372 -26 705 6 63 12 167 14 230 2 65 13 161 26 220 16 77 22 150 25 274 3 148
5 171 22 190 10 11 46 57 79 101 34 44 81 103 106 130 25 28 60 74 78 103 31
52 32 55 21 112 -14 75 -67 206 -148 364 -35 70 -64 131 -64 137 0 24 -62 163
-78 176 -9 7 -45 32 -79 55 -35 24 -63 50 -63 58 0 8 9 26 20 40 17 22 20 23
20 6 0 -17 4 -16 31 10 27 24 30 26 20 7 -18 -35 4 -28 33 10 37 49 56 100 56
154 1 46 1 47 16 28 15 -19 16 -18 11 21 -2 22 -16 58 -30 80 -13 21 -28 61
-31 89 -6 49 -26 88 -26 51 0 -14 -8 -8 -31 20 -36 47 -62 68 -111 94 -45 24
-52 25 -44 5 3 -8 3 -15 0 -15 -10 0 -69 33 -88 49 -18 15 -19 15 -13 -10 7
-26 6 -27 -61 -34 -56 -6 -63 -9 -42 -17 13 -5 26 -11 28 -13 2 -2 -17 -22
-42 -45 -48 -45 -66 -78 -46 -90 21 -13 -20 -80 -63 -102 -36 -18 -39 -22 -33
-50 3 -17 6 -72 6 -122 0 -58 5 -99 13 -109 8 -12 33 -19 80 -24 60 -5 67 -8
67 -28 0 -31 -20 -51 -62 -65 -21 -6 -38 -15 -38 -18 0 -4 -18 -18 -41 -32
-77 -48 -84 -73 -108 -420 -13 -178 -91 -606 -147 -800 -13 -46 -24 -103 -24
-127 0 -43 -44 -133 -65 -133 -12 0 -139 155 -171 208 -54 89 -68 121 -80 181
-11 60 -11 66 12 115 13 28 24 62 24 76 0 14 4 31 9 39 7 11 12 4 21 -26 11
-35 10 -44 -4 -64 -23 -33 -20 -49 4 -19 l20 25 6 -24 7 -23 13 23 c7 13 13
39 14 58 0 18 5 62 12 97 15 82 -2 222 -42 349 -46 143 -50 170 -59 351 -7
151 -11 178 -33 226 -14 30 -39 65 -57 79 -17 13 -46 36 -64 50 -38 31 -110
69 -131 69 -8 0 -29 12 -47 27 l-32 27 5 -26 c4 -24 1 -27 -38 -37 -26 -7 -57
-25 -79 -46 -38 -39 -45 -58 -17 -48 14 5 14 3 -4 -18 -11 -13 -28 -36 -37
-51 -14 -22 -25 -28 -52 -28 -46 0 -53 -19 -57 -146 l-3 -97 60 -22 c51 -19
60 -27 63 -50 6 -49 -13 -52 -60 -9 -24 22 -54 48 -68 59 -14 11 -42 43 -63
72 -21 29 -55 73 -76 98 -21 26 -50 79 -65 118 -15 40 -35 88 -45 107 -10 19
-21 46 -24 60 -3 14 -30 53 -60 88 -29 35 -79 114 -111 177 -34 67 -65 115
-75 118 -15 3 -19 20 -25 86 -5 60 -12 90 -27 110 -11 15 -28 59 -38 96 -16
67 -32 88 -46 65z m1314 -1401 c17 -44 40 -118 52 -162 23 -90 38 -267 22
-267 -5 0 -30 47 -56 105 -48 107 -63 162 -26 92 11 -22 22 -37 24 -35 2 2 -8
41 -21 88 -23 78 -45 260 -31 260 3 0 19 -36 36 -81z m1115 -296 c21 -63 21
-69 -14 -113 -16 -21 -30 -41 -30 -45 0 -11 -42 -67 -46 -62 -4 4 39 217 52
260 8 26 20 13 38 -40z"/>
</g>
</svg>
