<?xml version="1.0" standalone="no"?>
<!DOCTYPE svg PUBLIC "-//W3C//DTD SVG 20010904//EN"
 "http://www.w3.org/TR/2001/REC-SVG-20010904/DTD/svg10.dtd">
<svg version="1.0" xmlns="http://www.w3.org/2000/svg"
 width="310.000000pt" height="310.000000pt" viewBox="0 0 310.000000 310.000000"
 preserveAspectRatio="xMidYMid meet">

<g transform="translate(0.000000,310.000000) scale(0.100000,-0.100000)"
fill="#FF0000" stroke="none">
<path d="M1375 2813 c-161 -34 -317 -123 -434 -249 -118 -126 -187 -263 -216
-429 -19 -112 -19 -191 1 -296 30 -161 97 -295 209 -424 29 -33 177 -215 330
-405 152 -190 280 -346 284 -348 4 -1 129 150 278 335 149 186 284 349 299
363 52 48 145 173 178 239 113 227 126 467 37 697 -101 261 -339 462 -613 518
-96 20 -259 19 -353 -1z m-54 -417 c71 -15 152 -52 208 -94 22 -16 38 -22 46
-16 160 122 299 155 413 98 60 -30 120 -94 153 -162 33 -71 38 -187 9 -272
-29 -86 -90 -180 -159 -241 -98 -87 -388 -269 -430 -269 -21 0 -211 106 -321
178 -160 105 -262 237 -290 377 -37 179 65 357 230 401 58 16 63 16 141 0z"/>
</g>
</svg>
