<?xml version="1.0" standalone="no"?>
<!DOCTYPE svg PUBLIC "-//W3C//DTD SVG 20010904//EN"
 "http://www.w3.org/TR/2001/REC-SVG-20010904/DTD/svg10.dtd">
<svg version="1.0" xmlns="http://www.w3.org/2000/svg"
 width="666.000000pt" height="419.000000pt" viewBox="0 0 666.000000 419.000000"
 preserveAspectRatio="xMidYMid meet">
<metadata>
Created by potrace 1.16, written by Peter Selinger 2001-2019
</metadata>
<g transform="translate(0.000000,419.000000) scale(0.100000,-0.100000)"
fill="#000000" stroke="none">
<path d="M2231 3320 c-114 -214 -157 -486 -116 -726 74 -423 404 -781 820
-890 146 -38 349 -44 495 -14 342 70 618 277 775 581 91 177 126 321 126 525
0 136 -14 230 -52 345 -24 73 -82 196 -74 159 17 -90 27 -207 23 -285 -6 -102
-37 -270 -48 -258 -4 4 -13 26 -20 48 -27 84 -58 133 -90 140 -16 4 -30 12
-30 19 0 18 -33 46 -54 46 -12 0 -16 5 -12 15 37 99 42 179 12 204 -8 6 -16
25 -20 41 -8 44 -43 57 -115 42 -31 -7 -75 -12 -98 -12 -75 0 -97 -62 -43
-124 20 -22 32 -49 36 -80 4 -25 12 -46 18 -46 10 0 21 -11 61 -66 9 -14 15
-14 34 -5 76 41 18 -62 -110 -194 l-106 -109 -29 18 c-73 47 -183 132 -184
142 0 14 -40 50 -41 38 -1 -5 -7 9 -13 31 -7 23 -21 44 -33 49 -12 6 -25 24
-30 40 -10 37 -36 43 -87 22 -29 -12 -36 -20 -36 -42 0 -38 45 -111 79 -128
20 -11 33 -30 47 -71 18 -54 18 -57 1 -69 -9 -7 -17 -19 -17 -25 0 -14 23 -9
80 17 l35 16 -31 3 c-26 4 -33 11 -47 51 -20 54 -21 62 -7 62 5 0 9 -3 8 -7
-5 -20 15 -54 29 -49 9 4 47 -21 101 -66 48 -40 101 -83 117 -96 l30 -23 -105
6 c-58 3 -106 9 -108 13 -1 5 -16 7 -32 4 -20 -3 -27 -8 -23 -19 5 -12 1 -14
-15 -9 -12 3 -31 9 -42 12 -11 3 -43 -5 -73 -19 -51 -23 -52 -23 -92 -6 -52
24 -66 23 -111 -3 -25 -15 -50 -21 -78 -19 -23 1 -96 6 -164 10 l-123 7 -55
55 c-31 30 -60 62 -65 71 -8 16 -5 16 44 -1 30 -11 79 -25 110 -31 64 -15 87
-8 282 87 l110 54 3 -28 c4 -38 -14 -83 -33 -83 -8 0 -15 -4 -15 -9 0 -13 27
-21 72 -21 35 0 39 2 28 15 -7 8 -19 15 -27 15 -11 0 -14 7 -9 23 3 12 6 37 6
55 0 25 5 35 25 42 34 13 49 53 47 129 -1 35 -3 66 -5 67 -1 2 -27 4 -57 6
l-55 3 -7 -72 c-12 -122 -17 -128 -143 -180 -166 -68 -174 -70 -242 -49 -58
18 -177 77 -201 100 -7 6 -16 26 -21 43 l-9 31 54 -18 c30 -11 54 -17 54 -14
0 3 -11 22 -25 42 -30 44 -32 56 -6 42 27 -14 61 -13 66 3 2 6 7 25 9 40 3 16
10 35 17 43 8 9 8 18 2 27 -14 16 -23 117 -13 142 14 38 3 43 -102 44 -80 0
-107 -3 -138 -19 -102 -52 -119 -184 -35 -259 19 -16 41 -34 51 -39 15 -8 13
-15 -20 -69 -25 -40 -39 -76 -43 -112 -7 -63 -14 -55 -42 50 -46 169 -47 355
-1 532 10 40 17 73 16 74 -1 2 -21 -33 -45 -77z m1752 -707 c8 -21 17 -55 21
-76 7 -36 6 -38 -13 -28 -11 6 -73 11 -138 11 l-118 0 77 44 c42 23 89 53 105
64 39 30 49 27 66 -15z m-1420 -30 c66 -57 67 -58 40 -65 -39 -11 -53 -37 -33
-68 8 -13 55 -16 287 -20 l278 -5 37 -75 c40 -80 64 -162 75 -249 l6 -54 -89
6 c-49 4 -126 16 -171 27 -100 24 -217 75 -208 90 13 20 -4 56 -32 69 -16 8
-66 26 -113 42 -91 31 -137 67 -206 161 -31 41 -34 52 -28 84 6 33 65 114 83
114 4 0 37 -26 74 -57z m1437 -153 c0 -5 -13 -24 -29 -42 l-29 -33 -181 -16
c-100 -9 -195 -22 -211 -29 -34 -14 -37 -23 -48 -140 l-7 -85 -55 -12 c-85
-17 -120 -16 -120 5 1 53 44 200 79 271 l41 81 273 3 c149 1 275 3 280 5 4 1
7 -2 7 -8z m-614 -43 c-37 -63 -72 -163 -86 -247 l-13 -75 -19 95 c-12 64 -32
124 -61 183 l-43 87 123 0 124 0 -25 -43z"/>
<path d="M1755 1403 l-130 -4 0 -274 0 -275 138 0 c112 0 137 3 137 14 0 8 3
21 6 29 5 13 -1 14 -33 7 -21 -5 -68 -12 -105 -15 l-68 -7 0 126 c0 144 -11
131 102 117 52 -6 57 -5 62 14 3 11 6 22 6 25 0 3 -36 3 -81 0 -44 -3 -83 -3
-85 -1 -2 2 -4 51 -4 109 l0 104 95 -4 c74 -3 96 -1 100 10 7 19 6 32 -2 30
-5 -1 -66 -4 -138 -5z"/>
<path d="M2070 1403 l-55 -4 0 -274 0 -275 37 0 36 0 -5 120 -6 120 44 0 44 0
78 -110 c42 -60 77 -113 77 -119 0 -7 22 -11 52 -11 l52 0 -26 28 c-30 32
-158 212 -158 222 0 3 13 16 28 27 59 44 79 137 44 203 -33 61 -107 83 -242
73z m147 -43 c48 -44 54 -151 12 -204 -22 -28 -81 -50 -119 -44 -25 3 -25 4
-28 122 -1 66 0 126 2 133 9 22 108 17 133 -7z"/>
<path d="M2605 1403 l-130 -4 0 -274 0 -275 138 0 c112 0 137 3 137 14 0 8 3
21 6 29 5 13 -1 14 -33 7 -21 -5 -68 -12 -105 -15 l-68 -7 0 126 c0 144 -11
131 102 117 52 -6 57 -5 62 14 3 11 6 22 6 25 0 3 -36 3 -81 0 -44 -3 -83 -3
-85 -1 -2 2 -4 51 -4 109 l0 104 95 -4 c74 -3 96 -1 100 10 7 19 6 32 -2 30
-5 -1 -66 -4 -138 -5z"/>
<path d="M3715 1395 c-58 -22 -106 -65 -140 -126 -27 -49 -30 -63 -30 -144 0
-106 17 -147 88 -212 81 -75 226 -95 323 -45 49 25 107 88 130 139 27 60 24
186 -5 243 -52 102 -132 151 -251 156 -49 3 -89 -2 -115 -11z m180 -34 c78
-35 123 -112 132 -226 12 -153 -51 -247 -176 -262 -42 -5 -59 -1 -103 20 -86
43 -128 128 -128 259 0 108 36 172 115 209 51 24 109 24 160 0z"/>
<path d="M4510 1401 l-75 -6 0 -273 0 -272 116 0 c140 0 201 17 264 72 63 55
88 127 83 233 -11 197 -122 268 -388 246z m215 -56 c23 -13 50 -36 59 -50 28
-43 49 -144 42 -203 -18 -149 -95 -216 -241 -210 l-70 3 -3 242 -2 242 27 4
c58 10 146 -3 188 -28z"/>
<path d="M5181 1388 c-5 -13 -59 -133 -121 -268 -61 -135 -114 -251 -117 -257
-3 -9 5 -13 29 -13 28 0 34 4 36 24 1 13 15 53 31 90 l30 66 124 0 124 0 32
-70 c17 -39 31 -79 31 -90 0 -17 7 -20 48 -20 l49 0 -26 53 c-15 28 -71 154
-126 279 -76 173 -104 228 -118 228 -10 0 -21 -10 -26 -22z m112 -320 c-7 -13
-203 -10 -203 3 0 10 73 186 92 223 9 16 19 -1 63 -100 29 -65 51 -122 48
-126z"/>
<path d="M6135 1403 l-130 -4 0 -274 0 -275 138 0 c112 0 137 3 137 14 0 8 3
21 6 29 5 13 -1 14 -33 7 -21 -5 -68 -12 -105 -15 l-68 -7 0 126 c0 144 -11
131 102 117 52 -6 57 -5 62 14 3 11 6 22 6 25 0 3 -36 3 -81 0 -44 -3 -83 -3
-85 -1 -2 2 -4 51 -4 109 l0 104 95 -4 c74 -3 96 -1 100 10 7 19 6 32 -2 30
-5 -1 -66 -4 -138 -5z"/>
<path d="M199 1368 c10 -18 63 -145 117 -281 70 -177 102 -247 112 -245 9 2
41 73 80 176 36 94 68 172 72 172 4 0 38 -77 76 -171 62 -154 84 -192 100
-176 3 3 55 124 116 269 61 144 115 269 120 276 8 9 2 12 -26 12 -22 0 -36 -5
-36 -12 1 -16 -163 -428 -170 -428 -3 0 -39 84 -80 185 -41 102 -80 185 -86
185 -6 0 -41 -82 -79 -182 -37 -101 -69 -184 -70 -186 -5 -5 -165 405 -165
422 0 12 -11 16 -50 16 l-49 0 18 -32z"/>
<path d="M1055 1125 l0 -275 41 0 40 0 -8 72 c-5 40 -8 99 -6 133 l3 60 150 0
150 0 0 -132 0 -133 40 0 40 0 0 275 0 275 -40 0 -40 0 0 -122 0 -123 -150 0
-150 0 2 123 3 122 -38 0 -37 0 0 -275z"/>
<path d="M3047 1393 c-4 -3 -7 -15 -7 -26 0 -17 5 -19 33 -13 17 4 63 10 101
13 l68 6 -3 -261 -4 -262 35 0 36 0 -4 262 -4 261 68 -6 c38 -3 84 -9 102 -13
30 -6 32 -5 32 20 l0 26 -223 0 c-123 0 -227 -3 -230 -7z"/>
<path d="M5480 1374 c0 -25 2 -26 33 -20 17 4 63 10 101 13 l68 6 -4 -261 -4
-262 36 0 35 0 -3 262 -4 261 69 -6 c37 -3 83 -9 101 -13 31 -6 34 -5 30 17
l-3 24 -227 3 -228 2 0 -26z"/>
<path d="M265 731 c11 -13 58 -56 105 -96 198 -168 468 -308 675 -350 104 -21
300 -21 435 0 127 21 423 102 692 191 308 102 320 105 459 111 99 4 144 2 205
-11 94 -21 241 -90 304 -142 25 -21 36 -28 25 -15 -33 40 -161 118 -243 149
-218 84 -578 105 -822 48 -58 -13 -159 -40 -225 -59 -314 -91 -461 -118 -690
-124 -202 -6 -325 8 -475 53 -143 44 -318 140 -424 233 -23 20 -32 25 -21 12z"/>
<path d="M6360 725 c-38 -40 -161 -121 -256 -169 -194 -96 -378 -131 -649
-123 -229 6 -376 33 -690 124 -66 19 -167 46 -225 59 -244 57 -604 36 -822
-48 -82 -31 -210 -109 -243 -149 -11 -13 0 -6 25 15 63 52 210 121 304 142 61
13 106 15 205 11 139 -6 151 -9 459 -111 269 -89 565 -170 692 -191 132 -20
330 -21 435 -1 200 39 478 183 675 351 82 70 128 115 118 115 -2 0 -15 -11
-28 -25z"/>
</g>
</svg>
